<?xml version="1.0" encoding="UTF-8"?>
<svg id="Layer_1" data-name="Layer 1" xmlns="http://www.w3.org/2000/svg" version="1.1" viewBox="0 0 200 200">
  <defs>
    <style>
      .cls-1 {
        fill: none;
      }

      .cls-1, .cls-2 {
        stroke-width: 0px;
      }

      .cls-2 {
        fill: #fff;
      }
    </style>
  </defs>
  <rect class="cls-1" width="200" height="200"/>
  <path class="cls-2" d="M105.64,25.04h.01c-.92-1.56-2.16-2.78-3.72-3.66-1.57-.88-3.3-1.32-5.19-1.32s-3.62.44-5.2,1.32c-1.57.88-2.82,2.1-3.76,3.67-.34.58-.62,1.18-.83,1.8v-6.45h-6.29v10.26l-6.65-10.26h-6.29v6.43c-.21-.62-.48-1.21-.81-1.78-.92-1.57-2.16-2.79-3.72-3.67-1.57-.88-3.3-1.32-5.19-1.32s-3.62.44-5.2,1.32c-1.57.88-2.82,2.1-3.76,3.67-.34.57-.6,1.17-.83,1.78v-6.43h-7.68l-4.31,12.04-4.42-12.04h-7.71v20.05h6.29v-10l3.09,10h5.39l3.09-10v10h6.26v-6.6c.21.62.48,1.21.83,1.78.93,1.57,2.18,2.79,3.76,3.68,1.57.88,3.31,1.33,5.2,1.33s3.59-.45,5.17-1.33c1.57-.88,2.82-2.11,3.73-3.68.33-.56.6-1.16.81-1.78v6.6h6.29v-10.08l6.65,10.08h6.29v-6.62c.22.63.49,1.23.83,1.8.93,1.57,2.18,2.79,3.76,3.68,1.57.88,3.31,1.33,5.2,1.33s3.59-.45,5.17-1.33,2.82-2.11,3.73-3.68c.92-1.57,1.38-3.33,1.38-5.3s-.46-3.73-1.38-5.3h0ZM61.68,31.71c-.47,1.29-1.16,2.18-2.07,2.7-.92.53-1.96.57-3.12.14-1.17-.43-1.97-1.14-2.33-2.12s-.32-2.12.15-3.4,1.16-2.2,2.08-2.72,1.97-.56,3.16-.13,1.94,1.14,2.3,2.11c.36.99.32,2.13-.16,3.42h0ZM100.42,31.71c-.47,1.29-1.16,2.18-2.07,2.7-.92.53-1.96.57-3.12.14-1.17-.43-1.97-1.14-2.33-2.12-.37-.98-.32-2.12.15-3.4s1.16-2.2,2.08-2.72c.92-.52,1.97-.56,3.16-.13s1.94,1.14,2.3,2.11c.36.99.32,2.13-.16,3.42h0Z"/>
</svg>